<svg xmlns="http://www.w3.org/2000/svg" viewBox="0 0 512 512">
  <defs>
    <linearGradient id="pwaMaskGradBlue" x1="0%" y1="0%" x2="100%" y2="100%">
      <stop offset="0%" style="stop-color:#4285F4"/>
      <stop offset="100%" style="stop-color:#1a73e8"/>
    </linearGradient>
    <linearGradient id="pwaMaskGradGreen" x1="0%" y1="0%" x2="100%" y2="100%">
      <stop offset="0%" style="stop-color:#34A853"/>
      <stop offset="100%" style="stop-color:#188038"/>
    </linearGradient>
    <linearGradient id="pwaMaskGradYellow" x1="0%" y1="0%" x2="100%" y2="100%">
      <stop offset="0%" style="stop-color:#FBBC04"/>
      <stop offset="100%" style="stop-color:#ea8600"/>
    </linearGradient>
    <linearGradient id="pwaMaskGradRed" x1="0%" y1="0%" x2="100%" y2="100%">
      <stop offset="0%" style="stop-color:#EA4335"/>
      <stop offset="100%" style="stop-color:#c5221f"/>
    </linearGradient>
  </defs>
  
  <!-- Background with safe area for maskable icons (30% padding) - Light color -->
  <rect width="512" height="512" fill="#ffffff" rx="112"/>
  
  <!-- Google Drive Triangle Icon with 30% padding (153.6px on each side) -->
  <!-- Logo area: 204.8x204.8, centered at 256,256 -->
  <!-- Original icon is 24x24, scale to fit 204.8x204.8 area: 204.8/24 = 8.533 -->
  <g transform="translate(256, 256) scale(8.533)">
    <path d="M7.71 2L2 13.5l2.29 3.96L12.29 2H7.71z" fill="url(#pwaMaskGradBlue)" transform="translate(-12, -12)"/>
    <path d="M12.29 2L7.71 17.46l2.29 3.96L22 6.96 12.29 2z" fill="url(#pwaMaskGradGreen)" transform="translate(-12, -12)"/>
    <path d="M22 6.96L16.29 17.46l2.29 3.96L24 10.92 22 6.96z" fill="url(#pwaMaskGradYellow)" transform="translate(-12, -12)"/>
    <path d="M10 17.46L4.29 17.46l-2.29 3.96L7.71 21.42 10 17.46z" fill="url(#pwaMaskGradRed)" transform="translate(-12, -12)"/>
  </g>
</svg>
